<svg xmlns="http://www.w3.org/2000/svg" viewBox="0 0 720 360" font-family="sans-serif" font-size="12">
  <rect x="0" y="0" width="720" height="360" fill="white" />
  <line x1="48" y1="48.0" x2="672" y2="48.0" stroke="#ccc" stroke-dasharray="4,4" />
  <text x="48" y="20">Equity curve: point-in-time vs latest-restated</text>
  <polyline points="48.0,48.0 64.2,85.5 80.6,98.6 97.1,108.7 113.7,112.3 129.9,143.5 146.2,176.0 162.8,178.1 179.3,167.7 195.5,179.4 211.9,180.8 228.5,161.1 245.0,187.0 261.4,222.6 277.8,265.4 294.3,292.5 310.9,292.4 327.1,285.8 343.4,289.3 360.0,293.5 376.6,294.0 392.7,280.7 409.1,272.0 425.7,265.4 442.2,263.0 458.4,280.2 474.8,294.5 491.3,296.3 507.9,295.9 524.3,299.1 540.7,300.8 557.2,298.0 573.8,301.6 590.0,291.8 606.3,301.9 622.9,307.2 639.4,304.3 655.6,300.5 672.0,312.0" fill="none" stroke="#1f77b4" stroke-width="2" />
  <polyline points="48.0,48.0 64.2,73.4 80.6,81.5 97.1,94.3 113.7,104.6 129.9,101.3 146.2,131.4 162.8,136.7 179.3,131.0 195.5,149.4 211.9,153.6 228.5,136.0 245.0,166.4 261.4,204.4 277.8,257.0 294.3,282.1 310.9,275.4 327.1,267.3 343.4,271.5 360.0,275.9 376.6,279.7 392.7,267.1 409.1,251.8 425.7,247.2 442.2,231.7 458.4,253.2 474.8,271.2 491.3,273.5 507.9,274.1 524.3,283.4 540.7,293.1 557.2,290.9 573.8,295.3 590.0,285.1 606.3,298.5 622.9,304.0 639.4,300.5 655.6,296.1 672.0,307.1" fill="none" stroke="#d62728" stroke-width="2" />
  <rect x="512" y="48" width="12" height="12" fill="#1f77b4" />
  <text x="530" y="58">point_in_time</text>
  <rect x="512" y="66" width="12" height="12" fill="#d62728" />
  <text x="530" y="76">latest</text>
  <text x="48" y="350">2017-01-01</text>
  <text x="602" y="350">2026-07-01</text>
</svg>
